<?xml version="1.0" encoding="utf-8"?>
<!-- Generator: Adobe Illustrator 16.0.0, SVG Export Plug-In . SVG Version: 6.00 Build 0)  -->
<!DOCTYPE svg PUBLIC "-//W3C//DTD SVG 1.1//EN" "http://www.w3.org/Graphics/SVG/1.1/DTD/svg11.dtd">
<svg version="1.1" xmlns="http://www.w3.org/2000/svg" xmlns:xlink="http://www.w3.org/1999/xlink" x="0px" y="0px"
	 width="1190.552px" height="841.89px" viewBox="0 0 1190.552 841.89" enable-background="new 0 0 1190.552 841.89"
	 xml:space="preserve">
<g id="Layer_1">
	<g>
		<path fill="none" stroke="#000000" stroke-width="2" stroke-miterlimit="10" d="M319.979,303.029
			c-8.829,8.826-14.288,21.024-14.289,34.5c0,13.4,5.398,25.536,14.141,34.354l30.972,31.169c19.051,19.059,19.057,49.945,0,68.999
			c-19.058,19.06-49.945,19.06-69.006,0.002L250.9,440.791c-8.816-8.735-20.95-14.128-34.34-14.132
			c-13.478,0-25.675,5.462-34.502,14.29l-31.31,31.104c-19.053,19.058-49.945,19.058-69.001,0
			c-19.055-19.055-19.053-49.944,0-69.002l31.872-31.508c8.544-8.787,13.808-20.787,13.809-34.015
			c0-13.517-5.494-25.75-14.374-34.584l-31.306-30.942C62.694,252.949,62.696,222.056,81.75,203
			c19.058-19.055,49.945-19.055,68.999,0l22.875,22.874l8.357,8.157c8.835,8.876,21.064,14.368,34.578,14.368
			c13.378-0.001,25.495-5.382,34.308-14.099l30.931-31.298c19.062-19.059,49.947-19.059,69.007,0
			c19.051,19.055,19.051,49.945,0,69.002L319.979,303.029"/>
		<g>
			<path fill="none" stroke="#000000" stroke-width="6" stroke-miterlimit="10" d="M216.274,370.556
				c-18.239,0.001-33.026-14.786-33.026-33.029c0-18.241,14.782-33.028,33.03-33.028c18.239,0.002,33.023,14.787,33.023,33.028
				C249.301,355.77,234.517,370.556,216.274,370.556z"/>
			<path d="M216.274,362.508c-13.794,0-24.979-11.185-24.979-24.981c0-13.798,11.182-24.981,24.983-24.979
				c13.795,0,24.975,11.182,24.977,24.979C241.255,351.323,230.073,362.508,216.274,362.508z"/>
		</g>
		<g>
			<path fill="none" stroke="#000000" stroke-width="6" stroke-miterlimit="10" d="M153.635,433.203
				c0,18.237-14.792,33.026-33.035,33.026c-18.24,0-33.026-14.783-33.026-33.03c0-18.241,14.792-33.027,33.031-33.027
				C138.843,400.176,153.632,414.958,153.635,433.203z"/>
			<path fill="none" stroke="#000000" stroke-width="6" stroke-miterlimit="10" d="M346.11,240.724
				c0.003,18.237-14.791,33.029-33.039,33.03c-18.234,0-33.021-14.787-33.021-33.03c0-18.241,14.793-33.034,33.033-33.032
				C331.319,207.695,346.104,222.483,346.11,240.724z"/>
		</g>
		<g>
			<path fill="none" stroke="#000000" stroke-width="6" stroke-miterlimit="10" d="M313.083,400.168
				c18.239,0,33.028,14.792,33.028,33.035c-0.001,18.239-14.783,33.026-33.031,33.026c-18.24,0-33.027-14.792-33.027-33.03
				C280.058,414.96,294.84,400.172,313.083,400.168z"/>
			<path fill="none" stroke="#000000" stroke-width="6" stroke-miterlimit="10" d="M120.605,207.692
				c18.236-0.002,33.028,14.791,33.03,33.039c0,18.233-14.787,33.021-33.03,33.021c-18.242,0-33.033-14.792-33.033-33.032
				C87.577,222.483,102.363,207.699,120.605,207.692z"/>
		</g>
	</g>
	<g>
		<text transform="matrix(1 0 0 1 184.7563 568.1309)" font-family="'CPCompanyTTBold'" font-size="18">SIDE UP</text>
	</g>
	<path fill="none" stroke="#000000" stroke-miterlimit="10" d="M226.08,427.592"/>
	<path fill="none" stroke="#000000" stroke-miterlimit="10" d="M206.237,427.755"/>
	<polyline fill="none" stroke="#000000" stroke-width="2" stroke-miterlimit="10" points="226.08,427.592 226.08,478.488 
		206.237,478.488 206.237,427.755 	"/>
	<g>
		<path d="M1042.833,241.285c0-10.259,8.318-18.574,18.583-18.574c10.259,0,18.576,8.315,18.577,18.577
			c-0.001,10.262-8.32,18.577-18.58,18.577C1051.151,259.865,1042.836,251.55,1042.833,241.285z"/>
		<path d="M850.356,433.765c0.003-10.262,8.322-18.577,18.583-18.577c10.259,0,18.575,8.315,18.578,18.58
			c-0.003,10.259-8.319,18.574-18.578,18.574C858.679,452.342,850.359,444.026,850.356,433.765z"/>
		<path d="M868.937,259.865c-10.258,0-18.577-8.321-18.577-18.583c0-10.259,8.315-18.577,18.58-18.577
			c10.259,0,18.578,8.321,18.578,18.58C887.515,251.544,879.198,259.862,868.937,259.865z"/>
		<path d="M1061.413,452.342c-10.259,0-18.58-8.32-18.58-18.585c0-10.258,8.318-18.575,18.58-18.575
			c10.26,0,18.58,8.321,18.58,18.581C1079.992,444.021,1071.673,452.337,1061.413,452.342z"/>
		<path fill="none" stroke="#000000" stroke-width="2" stroke-miterlimit="10" d="M1076.827,294.875"/>
		<path fill="none" stroke="#000000" stroke-width="2" stroke-miterlimit="10" d="M931.159,234.87"/>
		<path fill="none" stroke="#000000" stroke-width="2" stroke-miterlimit="10" d="M999.674,441.231
			c-8.828-8.83-21.026-14.289-34.502-14.289c-13.399-0.002-25.535,5.4-34.352,14.142l-31.172,30.97
			c-19.056,19.053-49.945,19.058-68.999,0c-19.058-19.057-19.058-49.943,0-69.003l31.261-30.899
			c8.734-8.815,14.13-20.948,14.13-34.341c0.002-13.477-5.459-25.674-14.287-34.502l-31.104-31.307
			c-19.058-19.055-19.058-49.946,0-69.004c19.054-19.053,49.943-19.053,69.002,0l31.508,31.873
			c8.788,8.546,20.786,13.809,34.015,13.809c13.518,0.001,25.749-5.494,34.585-14.375l30.94-31.307
			c19.053-19.053,49.947-19.048,69.002,0.005c19.054,19.058,19.054,49.944,0,68.999l-22.874,22.874l-8.157,8.356
			c-8.874,8.837-14.366,21.066-14.366,34.58c0,13.377,5.383,25.495,14.098,34.307l31.3,30.934c19.057,19.06,19.057,49.946,0,69.003
			c-19.055,19.053-49.944,19.053-69.002,0L999.674,441.231"/>
		<path fill="none" stroke="#000000" stroke-width="2" stroke-miterlimit="10" d="M999.674,441.231"/>
	</g>
	<g>
		<text transform="matrix(1 0 0 1 916.8584 569.1309)" font-family="'CPCompanyTTBold'" font-size="18">SIDE DOWN</text>
	</g>
	<g>
		<text transform="matrix(1 0 0 1 566.7788 567.1309)"><tspan x="0" y="0" font-family="'CPCompanyTTBold'" font-size="18">INSIDE</tspan><tspan x="-81.588" y="21.6" font-family="'CPCompanyTTLight'" font-size="18">(WITH MAIN COMPONENTS)</tspan></text>
	</g>
	<g>
		<path fill="none" stroke="#000000" stroke-width="5" stroke-miterlimit="10" d="M629.675,441.231
			c-8.829-8.831-21.027-14.29-34.503-14.29c-13.399-0.002-25.536,5.4-34.352,14.143l-31.172,30.969
			c-19.055,19.054-49.945,19.058-68.999,0c-19.058-19.056-19.058-49.942,0-69.003l31.261-30.899
			c8.734-8.816,14.129-20.948,14.129-34.341c0.002-13.476-5.459-25.674-14.287-34.502L460.649,272
			c-19.058-19.055-19.058-49.946,0-69.003c19.054-19.053,49.944-19.053,69.002,0l31.508,31.872
			c8.788,8.546,20.786,13.81,34.014,13.81c13.518,0.001,25.749-5.494,34.585-14.375l30.94-31.307
			c19.053-19.053,49.947-19.049,69.002,0.004c19.054,19.059,19.054,49.944,0,68.999l-22.873,22.874l-8.158,8.356
			c-8.874,8.837-14.366,21.065-14.366,34.579c0,13.377,5.383,25.496,14.098,34.307l31.3,30.934
			c19.057,19.061,19.057,49.947,0,69.003c-19.055,19.054-49.944,19.054-69.002,0L629.675,441.231"/>
	</g>
	<g>
		<g>
			<path fill="none" stroke="#000000" stroke-miterlimit="10" d="M594.537,267.146c0-1.965,1.594-3.557,3.557-3.557h73.205
				c1.963,0,3.557,1.592,3.557,3.557v128.033c0,1.965-1.594,3.557-3.557,3.557h-73.205c-1.963,0-3.557-1.592-3.557-3.557V267.146z"
				/>
			<path fill="none" stroke="#000000" stroke-miterlimit="10" d="M646.105,401.552c0-1.556,1.262-2.816,2.816-2.816h10.67
				c1.555,0,2.816,1.261,2.816,2.816l0,0c0,1.554-1.262,2.814-2.816,2.814h-10.67C647.367,404.366,646.105,403.105,646.105,401.552
				L646.105,401.552z"/>
			<path fill="none" stroke="#000000" stroke-miterlimit="10" d="M603.256,402.736c0-2.21,1.793-4.001,4.002-4.001h15.162
				c2.209,0,4.002,1.791,4.002,4.001l0,0c0,2.21-1.793,4.001-4.002,4.001h-15.162C605.049,406.737,603.256,404.946,603.256,402.736
				L603.256,402.736z"/>
			<line fill="none" stroke="#000000" stroke-miterlimit="10" x1="594.537" y1="355.168" x2="674.855" y2="355.168"/>
		</g>
		<g>
			<circle fill="none" stroke="#000000" stroke-miterlimit="10" cx="614.839" cy="388.446" r="6.208"/>
			<g>
				<path d="M614.082,387.678v-2.528h1.525v2.528h2.527v1.537h-2.527v2.528h-1.525v-2.528h-2.539v-1.537H614.082z"/>
			</g>
		</g>
		<g>
			<circle fill="none" stroke="#000000" stroke-miterlimit="10" cx="654.534" cy="388.304" r="6.208"/>
			<g>
				<path d="M655.303,387.535h2.527v1.538h-2.527h-1.525h-2.541v-1.538h2.541H655.303z"/>
			</g>
		</g>
	</g>
	<rect x="530.891" y="268.661" fill="none" stroke="#000000" stroke-miterlimit="10" width="17.447" height="18.241"/>
	<rect x="520.779" y="262.647" fill="none" stroke="#000000" stroke-miterlimit="10" width="7.534" height="137.464"/>
	<rect x="567.173" y="262.647" fill="none" stroke="#000000" stroke-miterlimit="10" width="7.534" height="137.464"/>
	<polyline fill="none" stroke="#000000" stroke-miterlimit="10" points="536.971,407.778 520.779,407.778 520.779,262.647 
		574.708,262.647 574.707,407.778 558.648,407.778 	"/>
	
		<rect x="537.698" y="332.834" transform="matrix(-0.7071 0.7071 -0.7071 -0.7071 1177.5081 198.018)" fill="none" stroke="#000000" stroke-miterlimit="10" width="20.09" height="20.09"/>
	<polygon fill="none" stroke="#000000" stroke-miterlimit="10" points="562.016,400.111 558.648,400.111 558.648,394.561 
		536.971,394.561 536.971,400.111 533.603,400.111 533.603,406.456 536.971,406.456 536.971,410.839 558.648,410.839 
		558.648,406.456 562.016,406.456 	"/>
	<text transform="matrix(1 0 0 1 450.2471 82.1064)" font-family="'CPCompanyTTBold'" font-size="33">ODBIKE (CASE)</text>
	<g>
		<path fill="none" stroke="#000000" stroke-miterlimit="10" d="M78.14,149c-5.901,0-10.684-4.783-10.684-10.684V71.685
			C67.456,65.784,72.239,61,78.14,61h276.269c5.901,0,10.684,4.783,10.684,10.684v66.631c0,5.901-4.783,10.684-10.684,10.684H78.14z
			"/>
	</g>
	<path d="M156.642,60.667L156.642,60.667c0-2.946-2.388-5.333-5.333-5.333H89.642c-2.946,0-5.333,2.388-5.333,5.333l0,0H156.642z"/>
	<path d="M349.642,60.667L349.642,60.667c0-2.946-2.388-5.333-5.333-5.333h-61.666c-2.946,0-5.333,2.388-5.333,5.333l0,0H349.642z"
		/>
	<path d="M251.642,60.667L251.642,60.667c0-2.946-2.388-5.333-5.333-5.333h-61.666c-2.946,0-5.333,2.388-5.333,5.333l0,0H251.642z"
		/>
	<rect x="191.479" y="49" width="49.352" height="9"/>
	<path fill="none" stroke="#000000" stroke-width="12" stroke-miterlimit="10" d="M216.275,478.488v15.179
		c0,0,1.333,37.483-37.484,37.483"/>
	<circle fill="none" stroke="#000000" stroke-miterlimit="10" cx="213.308" cy="113.667" r="17"/>
	<circle fill="none" stroke="#000000" stroke-miterlimit="10" cx="213.308" cy="113.667" r="8.745"/>
	<polyline fill="none" stroke="#000000" stroke-width="2" stroke-miterlimit="10" points="604.08,427.592 604.08,478.488 
		584.237,478.488 584.237,427.755 	"/>
	<path fill="none" stroke="#000000" stroke-width="12" stroke-miterlimit="10" d="M594.274,478.488v15.179
		c0,0,1.334,37.483-37.483,37.483"/>
	<polyline fill="none" stroke="#000000" stroke-width="2" stroke-miterlimit="10" points="974.08,427.592 974.08,478.488 
		954.237,478.488 954.237,427.755 	"/>
	<path fill="none" stroke="#000000" stroke-width="12" stroke-miterlimit="10" d="M964.274,478.488v15.179
		c0,0,1.334,37.483-37.483,37.483"/>
	<rect x="900.082" y="309.866" fill="none" stroke="#000000" stroke-miterlimit="10" width="130.226" height="60.689"/>
	<text transform="matrix(1 0 0 1 946.1123 344.2109)" font-family="'CPCompanyTTBold'" font-size="16">LOGO</text>
	<g>
		<text transform="matrix(1 0 0 1 451.2734 125.3315)"><tspan x="0" y="0" font-family="'CPCompanyTTRegular'" font-size="16">FIRST 2D MODEL</tspan><tspan x="0" y="19.2" font-family="'CPCompanyTTRegular'" font-size="16">SIZE: 10cm X 10cm X 2.5 cm (FIRST HYPOTHESIS) </tspan></text>
	</g>
	<text transform="matrix(1 0 0 1 519.5361 710.1064)" font-family="'CPCompanyTTBold'" font-size="33">ODBIKE (SENSORS)</text>
	<path fill="none" stroke="#000000" stroke-width="2" stroke-miterlimit="10" d="M204.114,766.98
		c21.413,0,40.038-11.878,49.684-29.396h-99.37C164.073,755.103,182.699,766.98,204.114,766.98z"/>
	<path fill="none" stroke="#000000" stroke-width="2" stroke-miterlimit="10" d="M204.114,653.595
		c-31.313,0-56.696,25.383-56.696,56.695c0,9.897,2.55,19.196,7.01,27.294h99.37c4.457-8.098,7.006-17.396,7.006-27.294
		C260.804,678.978,235.424,653.595,204.114,653.595z"/>
	<circle fill="none" stroke="#000000" stroke-width="2" stroke-miterlimit="10" cx="204.113" cy="684.778" r="16.302"/>
	<path fill="none" stroke="#000000" stroke-width="2" stroke-miterlimit="10" d="M226.312,684.778
		c0,12.259-9.938,22.197-22.197,22.197c-12.256,0-22.2-9.938-22.2-22.197c0-12.256,9.944-22.197,22.2-22.197
		C216.374,662.581,226.312,672.522,226.312,684.778z"/>
	<g>
		<text transform="matrix(1 0 0 1 521.2734 741.332)"><tspan x="0" y="0" font-family="'CPCompanyTTRegular'" font-size="16">FIRST 2D MODEL</tspan><tspan x="0" y="19.199" font-family="'CPCompanyTTRegular'" font-size="16">APPROXIMATE SIZE: Diameter 4 cm X 2.5 cm (FIRST HYPOTHESIS) </tspan></text>
	</g>
	
		<rect x="315.209" y="653.595" fill="none" stroke="#000000" stroke-width="2" stroke-miterlimit="10" width="56.693" height="113.386"/>
	
		<line fill="none" stroke="#000000" stroke-width="2" stroke-miterlimit="10" x1="315.209" y1="737.584" x2="371.903" y2="737.584"/>
</g>
<g id="Layer_2" display="none">
	<rect x="-222.021" y="289.485" display="inline" fill="#BCBEC0" width="73.421" height="22.937"/>
	<path display="inline" fill="#939598" d="M-172.2,383.256c-11.851,11.851-31.064,11.854-42.916,0l0,0
		c-11.854-11.854-11.854-31.064,0-42.919l124.428-124.43c11.851-11.851,31.067-11.848,42.918,0.003l0,0
		c11.852,11.854,11.852,31.064,0,42.916L-172.2,383.256z"/>
	<path display="inline" fill="#808285" d="M-47.771,340.337c11.854,11.854,11.854,31.065,0,42.919l0,0
		c-11.851,11.851-31.064,11.851-42.918,0l-124.428-124.43c-11.854-11.852-11.854-31.065,0-42.919l0,0
		c11.852-11.851,31.065-11.851,42.919,0L-47.771,340.337z"/>
	<path display="inline" fill="#939598" d="M-172.2,383.256c-11.851,11.851-31.064,11.854-42.916,0l0,0
		c-11.854-11.854-11.854-31.064,0-42.919l124.428-124.43c11.851-11.851,31.067-11.848,42.918,0.003l0,0
		c11.852,11.854,11.852,31.064,0,42.916L-172.2,383.256z"/>
	
		<circle display="inline" fill="none" stroke="#FFFFFF" stroke-width="6" stroke-miterlimit="10" cx="-131.443" cy="299.583" r="20.543"/>
	<path display="inline" fill="none" stroke="#39B54A" stroke-width="6" stroke-miterlimit="10" d="M-92.129,239.722
		c0-11.345,9.197-20.539,20.547-20.539c11.345,0,20.54,9.194,20.542,20.541c-0.002,11.348-9.2,20.542-20.544,20.542
		C-82.932,260.266-92.126,251.071-92.129,239.722z"/>
	<path display="inline" fill="none" stroke="#00AEEF" stroke-width="6" stroke-miterlimit="10" d="M-211.847,359.439
		c0.003-11.345,9.2-20.542,20.548-20.542c11.344,0,20.539,9.197,20.541,20.545c-0.002,11.344-9.197,20.541-20.541,20.541
		C-202.646,379.983-211.844,370.786-211.847,359.439z"/>
	<path display="inline" fill="none" stroke="#FBB040" stroke-width="6" stroke-miterlimit="10" d="M-191.302,260.266
		c-11.345,0-20.542-9.2-20.542-20.547c0-11.345,9.194-20.542,20.545-20.542c11.344,0,20.541,9.2,20.541,20.545
		C-170.76,251.065-179.955,260.264-191.302,260.266z"/>
	<path display="inline" fill="none" stroke="#F9ED32" stroke-width="6" stroke-miterlimit="10" d="M-71.584,379.983
		c-11.345,0-20.545-9.2-20.545-20.55c0-11.342,9.197-20.539,20.545-20.539c11.344,0,20.544,9.2,20.544,20.545
		C-51.042,370.783-60.24,379.979-71.584,379.983z"/>
	<polyline display="inline" fill="none" stroke="#000000" stroke-width="2" stroke-miterlimit="10" points="-185.83,525.152 
		-211.073,525.152 -211.073,502.216 -185.832,502.216 	"/>
	<path display="inline" fill="none" stroke="#000000" stroke-width="2" stroke-miterlimit="10" d="M-47.771,554.44l-40.755-40.756
		l40.755-40.755c11.852-11.852,11.852-31.062,0-42.916c-11.852-11.851-31.067-11.854-42.918-0.003l-40.755,40.755l-40.754-40.755
		c-11.854-11.851-31.067-11.851-42.919,0c-11.854,11.854-11.854,31.067,0,42.919l40.755,40.755l-40.755,40.756
		c-11.854,11.854-11.854,31.065,0,42.919c11.852,11.854,31.065,11.851,42.916,0l40.756-40.756l40.756,40.756
		c11.854,11.851,31.066,11.851,42.918,0C-35.917,585.506-35.917,566.295-47.771,554.44z"/>
	
		<circle display="inline" fill="none" stroke="#000000" stroke-width="6" stroke-miterlimit="10" cx="-131.444" cy="513.687" r="20.543"/>
	<path display="inline" fill="none" stroke="#000000" stroke-width="6" stroke-miterlimit="10" d="M-92.129,453.825
		c0-11.345,9.197-20.539,20.547-20.539c11.345,0,20.54,9.194,20.542,20.541c-0.002,11.348-9.2,20.542-20.544,20.542
		C-82.932,474.369-92.126,465.175-92.129,453.825z"/>
	<path display="inline" fill="none" stroke="#000000" stroke-width="6" stroke-miterlimit="10" d="M-211.847,573.543
		c0.003-11.345,9.2-20.542,20.548-20.542c11.344,0,20.539,9.197,20.541,20.545c-0.002,11.344-9.197,20.541-20.541,20.541
		C-202.647,594.087-211.844,584.89-211.847,573.543z"/>
	<path display="inline" fill="none" stroke="#000000" stroke-width="6" stroke-miterlimit="10" d="M-191.302,474.369
		c-11.345,0-20.542-9.2-20.542-20.547c0-11.345,9.194-20.542,20.545-20.542c11.344,0,20.541,9.2,20.541,20.545
		C-170.76,465.169-179.956,474.367-191.302,474.369z"/>
	<path display="inline" fill="none" stroke="#000000" stroke-width="6" stroke-miterlimit="10" d="M-71.584,594.087
		c-11.345,0-20.545-9.2-20.545-20.55c0-11.342,9.197-20.539,20.545-20.539c11.344,0,20.544,9.2,20.544,20.545
		C-51.042,584.887-60.241,594.082-71.584,594.087z"/>
	<text transform="matrix(1 0 0 1 -207.2769 173.6675)" display="inline" font-family="'CPCompanyTTBold'" font-size="23">First Sketches</text>
</g>
</svg>
