<?xml version="1.0" encoding="utf-8"?>
<!-- Generator: Adobe Illustrator 15.0.0, SVG Export Plug-In . SVG Version: 6.00 Build 0)  -->
<!DOCTYPE svg PUBLIC "-//W3C//DTD SVG 1.1//EN" "http://www.w3.org/Graphics/SVG/1.1/DTD/svg11.dtd">
<svg version="1.1" id="Layer_1" xmlns="http://www.w3.org/2000/svg" xmlns:xlink="http://www.w3.org/1999/xlink" x="0px" y="0px"
	 width="283.465px" height="283.465px" viewBox="0 0 283.465 283.465" enable-background="new 0 0 283.465 283.465"
	 xml:space="preserve">
<g>
	<path fill="none" stroke="#000000" stroke-width="0.0283" stroke-miterlimit="10" d="M79.415,25.126v134.082h134.093V25.126H79.415
		z M144.258,155.831c-21.231-0.757-41.612-12.087-53.005-31.871c-11.398-19.797-10.936-43.157-0.888-61.935
		c2.504,1.457,5.57,3.242,8.988,5.208l-0.081,52.106l15.686,9.076l-0.047-7.949c-1.648-1.713-3.174-3.72-4.484-5.97
		c-5.825-10.14-5.081-21.52,1.691-25.406c6.758-3.891,16.948,1.172,22.791,11.312c5.843,10.149,5.092,21.506-1.666,25.388
		c-0.913,0.532-1.874,0.883-2.897,1.091l-0.029,10.438l13.958,8.088C144.273,149.312,144.273,152.852,144.258,155.831z
		 M124.812,64.433c0-1.109,0.196-2.191,0.577-3.228l-9.748-5.753l-14.146,8.129l-9.006-5.212
		c5.363-8.576,12.822-16.001,22.205-21.394c29.854-17.182,67.762-7.484,85.817,21.529l-8.951,5.153L146.603,37.62l-15.679,9.031
		l7.919,4.563c2.259-0.532,4.668-0.825,7.198-0.812c11.702,0.049,21.156,6.402,21.125,14.198c-0.041,7.8-9.545,14.085-21.23,14.04
		C134.235,78.594,124.776,72.232,124.812,64.433z M178.244,147.404c-9.396,5.402-19.604,8.134-29.748,8.449l0.018-10.374
		l45.195-26.024l0.031-16.474l-9.432,5.433c-0.578,1.511-1.271,3.025-2.129,4.513c-5.843,10.145-16.049,15.199-22.809,11.321
		c-6.75-3.905-7.502-15.266-1.67-25.411c5.84-10.131,16.034-15.199,22.802-11.308c0.407,0.23,0.802,0.505,1.172,0.807l12.083-6.953
		l0.014-14.107l8.859-5.095C218.785,92.399,208.158,130.182,178.244,147.404z"/>
	<path fill="none" stroke="#000000" stroke-width="0.0283" stroke-miterlimit="10" d="M79.97,225.332h19.806v6.019H87.292v7.421
		h11.659v5.979H87.292v13.066H79.97V225.332L79.97,225.332z"/>
	<path fill="none" stroke="#000000" stroke-width="0.0283" stroke-miterlimit="10" d="M119.204,252.122
		c0,2.218,0.099,4.387,0.388,5.694h-6.601l-0.433-2.372h-0.147c-1.544,1.881-3.952,2.895-6.747,2.895
		c-4.774,0-7.61-3.472-7.61-7.223c0-6.132,5.492-9.017,13.828-9.017v-0.284c0-1.258-0.671-3.044-4.292-3.044
		c-2.403,0-4.959,0.825-6.506,1.74l-1.346-4.675c1.639-0.92,4.862-2.119,9.157-2.119c7.856,0,10.305,4.63,10.305,10.167
		L119.204,252.122L119.204,252.122z M112.121,246.68c-3.853,0-6.844,0.92-6.844,3.711c0,1.876,1.253,2.791,2.893,2.791
		c1.783,0,3.33-1.204,3.81-2.696c0.095-0.388,0.142-0.82,0.142-1.254V246.68z"/>
	<path fill="none" stroke="#000000" stroke-width="0.0283" stroke-miterlimit="10" d="M121.426,223.596h7.327v13.449h0.095
		c1.397-2.033,3.855-3.327,7.135-3.327c5.633,0,9.732,4.671,9.688,11.898c0,8.48-5.353,12.723-10.745,12.723
		c-2.755,0-5.447-1.014-7.09-3.81h-0.095l-0.291,3.287h-6.217c0.097-1.547,0.189-4.392,0.189-7.043L121.426,223.596L121.426,223.596
		z M128.753,247.789c0,0.478,0.045,0.911,0.14,1.299c0.485,1.925,2.168,3.467,4.292,3.467c3.131,0,5.059-2.412,5.059-6.646
		c0-3.666-1.637-6.561-5.059-6.561c-1.971,0-3.808,1.502-4.292,3.621c-0.095,0.428-0.14,0.865-0.14,1.348V247.789z"/>
	<path fill="none" stroke="#000000" stroke-width="0.0283" stroke-miterlimit="10" d="M146.922,225.332h7.322v26.308h12.92v6.177
		h-20.242V225.332z"/>
	<path fill="none" stroke="#000000" stroke-width="0.0283" stroke-miterlimit="10" d="M187.448,252.122
		c0,2.218,0.099,4.387,0.381,5.694h-6.601l-0.428-2.372h-0.149c-1.537,1.881-3.947,2.895-6.745,2.895
		c-4.771,0-7.612-3.472-7.612-7.223c0-6.132,5.496-9.017,13.83-9.017v-0.284c0-1.258-0.672-3.044-4.288-3.044
		c-2.412,0-4.963,0.825-6.51,1.74l-1.348-4.675c1.641-0.92,4.869-2.119,9.154-2.119c7.855,0,10.315,4.63,10.315,10.167V252.122
		L187.448,252.122z M180.367,246.68c-3.854,0-6.844,0.92-6.844,3.711c0,1.876,1.251,2.791,2.893,2.791
		c1.781,0,3.327-1.204,3.807-2.696c0.1-0.388,0.145-0.82,0.145-1.254V246.68z"/>
	<path fill="none" stroke="#000000" stroke-width="0.0283" stroke-miterlimit="10" d="M189.674,223.596h7.316v13.449h0.1
		c1.398-2.033,3.859-3.327,7.133-3.327c5.643,0,9.73,4.671,9.684,11.898c0,8.48-5.346,12.723-10.743,12.723
		c-2.745,0-5.45-1.014-7.083-3.81h-0.102l-0.286,3.287h-6.218c0.1-1.547,0.194-4.392,0.194-7.043L189.674,223.596L189.674,223.596z
		 M196.995,247.789c0,0.478,0.052,0.911,0.142,1.299c0.485,1.925,2.176,3.467,4.293,3.467c3.131,0,5.057-2.412,5.057-6.646
		c0-3.666-1.637-6.561-5.057-6.561c-1.977,0-3.808,1.502-4.293,3.621c-0.092,0.428-0.142,0.865-0.142,1.348V247.789z"/>
	<path fill="none" stroke="#000000" stroke-width="0.0283" stroke-miterlimit="10" d="M112.849,181.404L112.849,181.404
		c-1.21,5.09-9.941,30.974-9.941,30.974h-6.535c0,0-7.71-25.717-8.643-30.979l0,0c-0.167,5.384-0.099,31.633-0.099,31.633h-7.755
		v-39.852h13.526l3.62,13.363c1.218,4.549,2.317,9.522,3.141,14.193h0.221c0.987-4.617,2.252-9.815,3.515-14.311l3.902-13.246
		h12.972v39.852h-8.129C112.641,213.032,112.849,187.266,112.849,181.404z"/>
	<path fill="none" stroke="#000000" stroke-width="0.0283" stroke-miterlimit="10" d="M134.285,173.181v22.886
		c0,6.911,2.66,10.405,7.214,10.405c4.734,0,7.333-3.313,7.333-10.405v-22.886h8.983v22.349c0,12.3-6.197,18.152-16.61,18.152
		c-10.05,0-15.906-5.613-15.906-18.265v-22.236H134.285z"/>
	<path fill="none" stroke="#000000" stroke-width="0.0283" stroke-miterlimit="10" d="M161.49,203.808
		c2.362,1.24,6.149,2.479,9.995,2.479c4.14,0,6.325-1.709,6.325-4.373c0-2.417-1.897-3.896-6.682-5.56
		c-6.621-2.367-10.996-6.027-10.996-11.88c0-6.799,5.729-11.943,15.076-11.943c4.55,0,7.81,0.884,10.168,2.011l-2.007,7.214
		c-1.542-0.762-4.437-1.894-8.278-1.894c-3.899,0-5.795,1.835-5.795,3.846c0,2.534,2.188,3.666,7.387,5.672
		c7.043,2.606,10.293,6.271,10.293,11.948c0,6.682-5.088,12.354-16.023,12.354c-4.553,0-9.044-1.24-11.293-2.48L161.49,203.808z"/>
	<path fill="none" stroke="#000000" stroke-width="0.0283" stroke-miterlimit="10" d="M212.252,196.179H197.59v9.459h16.381v7.395
		H188.6v-39.852h24.541v7.39H197.59v8.282h14.662V196.179z"/>
</g>
</svg>
