<?xml version="1.0" standalone="no"?>
 <!DOCTYPE svg PUBLIC "-//W3C//DTD SVG 1.1//EN" 
 "http://www.w3.org/Graphics/SVG/1.1/DTD/svg11.dtd"> 
<svg xmlns="http://www.w3.org/2000/svg" version="1.1" 
    width="41.9989cm" height="29.7002cm" viewBox="0 0 165350 116930 ">
<title>SVG Picture created as massimo--brd.svg date 2015/06/27 19:36:07 </title>
  <desc>Picture generated by PCBNEW </desc>
<g style="fill:#000000; fill-opacity:1;stroke:#000000; stroke-opacity:1;
stroke-linecap:round; stroke-linejoin:round; "
 transform="translate(0 0) scale(1 1)">
</g>
<g style="fill:#000000; fill-opacity:0.0; 
stroke:#000000; stroke-width:59.0551; stroke-opacity:1; 
stroke-linecap:round; stroke-linejoin:round;">
<path d="M69650 22440
L69650 22400
" />
<path d="M69650 22310
L69650 22440
" />
<path d="M71870 20090
L69650 22310
" />
<path d="M94500 44240
L94500 43040
" />
<path d="M94500 44400
L94500 44240
" />
<path d="M69650 44400
L94480 44400
" />
<path d="M69650 22375
L69650 44400
" />
<path d="M94500 20100
L94500 43050
" />
<path d="M71850 20100
L94500 20100
" />
</g>
<g style="fill:#000000; fill-opacity:0.0; 
stroke:#000000; stroke-width:246.063; stroke-opacity:1; 
stroke-linecap:round; stroke-linejoin:round;">
<path d="M73665 32242
L73665 32430
L73618 32523
L73525 32617
L73337 32664
L73009 32664
L72822 32617
L72728 32523
L72681 32430
L72681 32242
L72728 32148
L72822 32055
L73009 32008
L73337 32008
L73525 32055
L73618 32148
L73665 32242
" />
<path d="M73197 33414
L73197 33086
" />
<path d="M72681 33086
L73665 33086
L73665 33554
" />
<path d="M73197 34257
L73197 33929
" />
<path d="M72681 33929
L73665 33929
L73665 34398
" />
<path d="M73770 27845
L73770 28033
L73723 28126
L73630 28220
L73442 28267
L73114 28267
L72927 28220
L72833 28126
L72786 28033
L72786 27845
L72833 27751
L72927 27658
L73114 27611
L73442 27611
L73630 27658
L73723 27751
L73770 27845
" />
<path d="M72786 28689
L73770 28689
L72786 29251
L73770 29251
" />
</g>
<g style="fill:#000000; fill-opacity:0.0; 
stroke:#000000; stroke-width:295.276; stroke-opacity:1; 
stroke-linecap:round; stroke-linejoin:round;">
<path d="M90903 27013
L92871 27013
L91465 27670
L92871 28326
L90903 28326
" />
<path d="M92871 29263
L91278 29263
L91090 29357
L90996 29451
L90903 29638
L90903 30013
L90996 30201
L91090 30294
L91278 30388
L92871 30388
" />
<path d="M90903 32263
L90903 31325
L92871 31325
" />
<path d="M92871 32638
L92871 33763
" />
<path d="M90903 33200
L92871 33200
" />
<path d="M90903 34419
L92871 34419
" />
<path d="M92871 35075
L92871 36200
" />
<path d="M90903 35637
L92871 35637
" />
<path d="M90903 36856
L92871 36856
" />
<path d="M90903 37793
L92871 37793
L90903 38918
L92871 38918
" />
<path d="M91840 40231
L90903 40231
" />
<path d="M92871 39574
L91840 40231
L92871 40887
" />
</g>
<g style="fill:#000000; fill-opacity:0.0; 
stroke:#000000; stroke-width:39.3701; stroke-opacity:1; 
stroke-linecap:round; stroke-linejoin:round;">
</g>
<g style="fill:#000000; fill-opacity:1.0; 
stroke:#000000; stroke-width:39.3701; stroke-opacity:1; 
stroke-linecap:round; stroke-linejoin:round;">
<polyline style="fill-rule:evenodd;"
points="86297,37244
86297,36495
86652,36495
86652,37244
86297,37244
" /> 
<polyline style="fill-rule:evenodd;"
points="-177,374
-177,-374
177,-374
177,374
-177,374
" /> 
<polyline style="fill-rule:evenodd;"
points="83048,37246
83048,36497
83403,36497
83403,37246
83048,37246
" /> 
<circle cx="81755" cy="36695" r="255.315" /> 
<circle cx="81755" cy="38695" r="255.315" /> 
<circle cx="78755" cy="36695" r="255.315" /> 
<circle cx="78755" cy="38695" r="255.315" /> 
<circle cx="76700" cy="30000" r="255.315" /> 
<circle cx="74700" cy="30000" r="255.315" /> 
<circle cx="76700" cy="27000" r="255.315" /> 
<circle cx="74700" cy="27000" r="255.315" /> 
<circle cx="76600" cy="34750" r="255.315" /> 
<circle cx="74600" cy="34750" r="255.315" /> 
<circle cx="76600" cy="31750" r="255.315" /> 
<circle cx="74600" cy="31750" r="255.315" /> 
<polyline style="fill-rule:evenodd;"
points="84919,35255
84919,34844
85080,34844
85080,35255
84919,35255
" /> 
<polyline style="fill-rule:evenodd;"
points="85419,35255
85419,34844
85580,34844
85580,35255
85419,35255
" /> 
<polyline style="fill-rule:evenodd;"
points="85919,35255
85919,34844
86080,34844
86080,35255
85919,35255
" /> 
<polyline style="fill-rule:evenodd;"
points="86419,35255
86419,34844
86580,34844
86580,35255
86419,35255
" /> 
<polyline style="fill-rule:evenodd;"
points="86919,35255
86919,34844
87080,34844
87080,35255
86919,35255
" /> 
<polyline style="fill-rule:evenodd;"
points="87419,35255
87419,34844
87580,34844
87580,35255
87419,35255
" /> 
<polyline style="fill-rule:evenodd;"
points="87919,35255
87919,34844
88080,34844
88080,35255
87919,35255
" /> 
<polyline style="fill-rule:evenodd;"
points="87919,32755
87919,32344
88080,32344
88080,32755
87919,32755
" /> 
<polyline style="fill-rule:evenodd;"
points="87419,32755
87419,32344
87580,32344
87580,32755
87419,32755
" /> 
<polyline style="fill-rule:evenodd;"
points="86419,32755
86419,32344
86580,32344
86580,32755
86419,32755
" /> 
<polyline style="fill-rule:evenodd;"
points="85919,32755
85919,32344
86080,32344
86080,32755
85919,32755
" /> 
<polyline style="fill-rule:evenodd;"
points="85419,32755
85419,32344
85580,32344
85580,32755
85419,32755
" /> 
<polyline style="fill-rule:evenodd;"
points="84919,32755
84919,32344
85080,32344
85080,32755
84919,32755
" /> 
<polyline style="fill-rule:evenodd;"
points="86919,32755
86919,32344
87080,32344
87080,32755
86919,32755
" /> 
<polyline style="fill-rule:evenodd;"
points="89605,40244
89605,40755
89094,40755
89094,40244
89605,40244
" /> 
<circle cx="88350" cy="40500" r="255.315" /> 
<circle cx="87350" cy="40500" r="255.315" /> 
<circle cx="86350" cy="40500" r="255.315" /> 
<circle cx="85350" cy="40500" r="255.315" /> 
<circle cx="84350" cy="40500" r="255.315" /> 
<circle cx="83350" cy="40500" r="255.315" /> 
<polyline style="fill-rule:evenodd;"
points="83444,29755
83444,29244
83955,29244
83955,29755
83444,29755
" /> 
<circle cx="84700" cy="29500" r="255.315" /> 
<circle cx="85700" cy="29500" r="255.315" /> 
<circle cx="86700" cy="29500" r="255.315" /> 
<circle cx="87700" cy="29500" r="255.315" /> 
<circle cx="88700" cy="29500" r="255.315" /> 
<circle cx="89700" cy="29500" r="255.315" /> 
<polyline style="fill-rule:evenodd;"
points="83304,27730
83304,27219
83815,27219
83815,27730
83304,27730
" /> 
<circle cx="84560" cy="27475" r="255.315" /> 
<circle cx="85560" cy="27475" r="255.315" /> 
<polyline style="fill-rule:evenodd;"
points="81109,40255
81109,40924
80520,40924
80520,40255
81109,40255
" /> 
<polyline style="fill-rule:evenodd;"
points="79991,40255
79991,40924
79402,40924
79402,40255
79991,40255
" /> 
<polyline style="fill-rule:evenodd;"
points="80515,31332
81184,31332
81184,31921
80515,31921
80515,31332
" /> 
<polyline style="fill-rule:evenodd;"
points="80515,32450
81184,32450
81184,33039
80515,33039
80515,32450
" /> 
<polyline style="fill-rule:evenodd;"
points="75711,36382
75711,37053
75120,37053
75120,36382
75711,36382
" /> 
<polyline style="fill-rule:evenodd;"
points="76811,36382
76811,37053
76220,37053
76220,36382
76811,36382
" /> 
<polyline style="fill-rule:evenodd;"
points="82189,29840
82189,29169
82780,29169
82780,29840
82189,29840
" /> 
<polyline style="fill-rule:evenodd;"
points="81089,29840
81089,29169
81680,29169
81680,29840
81089,29840
" /> 
<polyline style="fill-rule:evenodd;"
points="76855,40254
76855,40925
76264,40925
76264,40254
76855,40254
" /> 
<polyline style="fill-rule:evenodd;"
points="77955,40254
77955,40925
77364,40925
77364,40254
77955,40254
" /> 
<polyline style="fill-rule:evenodd;"
points="81185,34329
80514,34329
80514,33738
81185,33738
81185,34329
" /> 
<polyline style="fill-rule:evenodd;"
points="81185,35429
80514,35429
80514,34838
81185,34838
81185,35429
" /> 
<polyline style="fill-rule:evenodd;"
points="80414,27855
80414,27184
81005,27184
81005,27855
80414,27855
" /> 
<polyline style="fill-rule:evenodd;"
points="79314,27855
79314,27184
79905,27184
79905,27855
79314,27855
" /> 
<polyline style="fill-rule:evenodd;"
points="78735,30545
78064,30545
78064,29954
78735,29954
78735,30545
" /> 
<polyline style="fill-rule:evenodd;"
points="78735,31645
78064,31645
78064,31054
78735,31054
78735,31645
" /> 
<polyline style="fill-rule:evenodd;"
points="82789,31425
82789,30664
83350,30664
83350,31425
82789,31425
" /> 
<polyline style="fill-rule:evenodd;"
points="84089,31425
84089,30664
84650,30664
84650,31425
84089,31425
" /> 
</g>
<g style="fill:#000000; fill-opacity:1.0; 
stroke:#000000; stroke-width:177.165; stroke-opacity:1; 
stroke-linecap:round; stroke-linejoin:round;">
<path d="M77660 40568
L79816 40568
" />
<path d="M79816 40568
L79838 40590
" />
<path d="M81410 29540
L80815 29540
" />
<path d="M80815 29540
L80675 29400
" />
<path d="M80675 29400
L80675 29295
" />
<path d="M80675 27510
L80675 29295
" />
<path d="M80675 29295
L80675 31520
" />
<path d="M80675 31520
L80850 31695
" />
<path d="M80880 32800
L80880 34060
" />
<path d="M80880 34060
L80860 34080
" />
<path d="M86497 35075
L86497 36791
" />
<path d="M85560 27475
L85560 29360
" />
<path d="M85560 29360
L85700 29500
" />
<path d="M85500 32657
L85500 30748
" />
<path d="M85500 30748
L85700 30548
" />
<path d="M85700 30548
L85700 29500
" />
<path d="M86700 29500
L86700 26980
" />
<path d="M85795 26075
L77700 26075
" />
<path d="M86700 26980
L85795 26075
" />
<path d="M86000 32607
L86000 31458
" />
<path d="M86000 31458
L86700 30758
" />
<path d="M86700 30758
L86700 29500
" />
<path d="M86498 32592
L86498 31730
" />
<path d="M87700 30528
L87700 29500
" />
<path d="M86498 31730
L87700 30528
" />
<path d="M86996 32605
L86996 32024
" />
<path d="M88700 30914
L88700 29500
" />
<path d="M88220 31394
L88700 30914
" />
<path d="M87626 31394
L88220 31394
" />
<path d="M86996 32024
L87626 31394
" />
<path d="M87503 32636
L87503 32089
" />
<path d="M87503 32089
L87824 31768
" />
<path d="M87824 31768
L89210 31768
" />
<path d="M89210 31768
L89700 31278
" />
<path d="M89700 31278
L89700 29500
" />
<path d="M88035 32565
L88935 32565
" />
<path d="M88935 32565
L89250 32880
" />
<path d="M89250 32880
L89250 40400
" />
<path d="M89250 40400
L89350 40500
" />
<path d="M87998 35064
L87998 37318
" />
<path d="M87998 37318
L88350 37670
" />
<path d="M88350 37670
L88350 40500
" />
<path d="M87500 35122
L87500 39070
" />
<path d="M87500 39070
L87350 39220
" />
<path d="M87350 39220
L87350 40500
" />
<path d="M86350 40500
L86350 41382
" />
<path d="M86350 41382
L86218 41514
" />
<path d="M86218 41514
L81598 41514
" />
<path d="M81598 41514
L80872 40788
" />
<path d="M80872 40788
L80872 40744
" />
<path d="M86999 35055
L86999 37471
" />
<path d="M86999 37471
L86350 38120
" />
<path d="M86350 38120
L86350 40500
" />
<path d="M85998 35166
L85998 36582
" />
<path d="M85998 36582
L85350 37230
" />
<path d="M85350 37230
L85350 40500
" />
<path d="M85494 35171
L85494 35916
" />
<path d="M85494 35916
L84350 37060
" />
<path d="M84350 37060
L84350 40500
" />
<path d="M77700 26075
L76775 27000
" />
<path d="M76775 27000
L76700 27000
" />
<path d="M76700 30000
L78290 30000
" />
<path d="M78290 30000
L78386 30096
" />
</g>
<g style="fill:#000000; fill-opacity:1.0; 
stroke:#000000; stroke-width:137.795; stroke-opacity:1; 
stroke-linecap:round; stroke-linejoin:round;">
<path d="M76700 27000
L78735 27000
" />
<path d="M79230 27495
L79605 27495
" />
<path d="M78735 27000
L79230 27495
" />
</g>
<g style="fill:#000000; fill-opacity:1.0; 
stroke:#000000; stroke-width:177.165; stroke-opacity:1; 
stroke-linecap:round; stroke-linejoin:round;">
<path d="M78755 36695
L76538 36695
" />
<path d="M76538 36695
L76613 36770
" />
<path d="M76613 36770
L76538 36695
" />
<path d="M74600 37652
L74600 38056
" />
<path d="M74600 37652
L74600 36529
" />
<path d="M75450 36705
L74776 36705
" />
<path d="M74776 36705
L74600 36529
" />
<path d="M77630 36695
L76538 36695
" />
<path d="M76538 36695
L76514 36671
" />
<path d="M74598 38058
L74598 38062
" />
<path d="M74598 38062
L74600 38062
" />
<path d="M76500 40665
L75225 40665
" />
<path d="M74600 40040
L74600 38062
" />
<path d="M75225 40665
L74600 40040
" />
<path d="M83060 31030
L82400 31030
" />
<path d="M82400 31030
L82124 31306
" />
<path d="M82124 31306
L82124 31766
" />
<path d="M82124 31766
L82126 31766
" />
<path d="M80850 31540
L82030 31540
" />
<path d="M82126 31636
L82126 31766
" />
<path d="M82030 31540
L82126 31636
" />
<path d="M82126 31766
L82126 33629
" />
<path d="M82126 33629
L82786 34474
" />
<path d="M83402 35046
L84964 35046
" />
<path d="M82786 34474
L83402 35046
" />
<path d="M81755 36695
L81755 36565
" />
<path d="M81755 36565
L82125 36195
" />
<path d="M82125 36195
L82125 33629
" />
<path d="M82125 33629
L82126 33629
" />
<path d="M83700 29500
L82490 29500
" />
<path d="M82490 29500
L82460 29470
" />
<path d="M74600 34750
L74600 35979
" />
<path d="M74700 30000
L74700 31650
" />
<path d="M74700 31650
L74600 31750
" />
<path d="M83560 27475
L83560 29360
" />
<path d="M83560 29360
L83700 29500
" />
<path d="M83700 29500
L83700 31893
" />
<path d="M83700 31893
L84343 32536
" />
<path d="M84343 32536
L85008 32536
" />
<path d="M80880 35100
L80880 35820
" />
<path d="M80880 35820
L81755 36695
" />
</g>
<g style="fill:#000000; fill-opacity:1.0; 
stroke:#000000; stroke-width:100; stroke-opacity:1; 
stroke-linecap:round; stroke-linejoin:round;">
<path d="M77630 36695
L77617 36695
" />
</g>
<g style="fill:#000000; fill-opacity:1.0; 
stroke:#000000; stroke-width:177.165; stroke-opacity:1; 
stroke-linecap:round; stroke-linejoin:round;">
<path d="M74600 36529
L74600 34750
" />
<path d="M83350 40500
L83350 39495
" />
<path d="M83350 39495
L82550 38695
" />
<path d="M82550 38695
L81755 38695
" />
</g>
<g style="fill:#000000; fill-opacity:1.0; 
stroke:#000000; stroke-width:100; stroke-opacity:1; 
stroke-linecap:round; stroke-linejoin:round;">
<path d="M81755 38695
L82550 38695
" />
</g>
<g style="fill:#000000; fill-opacity:1.0; 
stroke:#000000; stroke-width:177.165; stroke-opacity:1; 
stroke-linecap:round; stroke-linejoin:round;">
<path d="M83226 38019
L83226 36872
" />
<path d="M82550 38695
L83226 38019
" />
<path d="M76600 31750
L78052 31750
" />
<path d="M78052 31750
L78386 31416
" />
<path d="M84560 27475
L84560 29360
" />
<path d="M84560 29360
L84700 29500
" />
<path d="M84700 29500
L84700 30753
" />
<path d="M84700 30753
L84425 31028
" />
</g>
<g style="fill:#FFFFFF; fill-opacity:1.0; 
stroke:#FFFFFF; stroke-width:39.3701; stroke-opacity:1; 
stroke-linecap:round; stroke-linejoin:round;">
<circle cx="86475" cy="36870" r="137.795" /> 
<circle cx="0" cy="0" r="137.795" /> 
<circle cx="83226" cy="36872" r="137.795" /> 
<circle cx="81755" cy="36695" r="140.315" /> 
<circle cx="81755" cy="38695" r="140.315" /> 
<circle cx="78755" cy="36695" r="140.315" /> 
<circle cx="78755" cy="38695" r="140.315" /> 
<circle cx="76700" cy="30000" r="140.315" /> 
<circle cx="74700" cy="30000" r="140.315" /> 
<circle cx="76700" cy="27000" r="140.315" /> 
<circle cx="74700" cy="27000" r="140.315" /> 
<circle cx="76600" cy="34750" r="140.315" /> 
<circle cx="74600" cy="34750" r="140.315" /> 
<circle cx="76600" cy="31750" r="140.315" /> 
<circle cx="74600" cy="31750" r="140.315" /> 
<circle cx="89350" cy="40500" r="140.315" /> 
<circle cx="88350" cy="40500" r="140.315" /> 
<circle cx="87350" cy="40500" r="140.315" /> 
<circle cx="86350" cy="40500" r="140.315" /> 
<circle cx="85350" cy="40500" r="140.315" /> 
<circle cx="84350" cy="40500" r="140.315" /> 
<circle cx="83350" cy="40500" r="140.315" /> 
<circle cx="83700" cy="29500" r="140.315" /> 
<circle cx="84700" cy="29500" r="140.315" /> 
<circle cx="85700" cy="29500" r="140.315" /> 
<circle cx="86700" cy="29500" r="140.315" /> 
<circle cx="87700" cy="29500" r="140.315" /> 
<circle cx="88700" cy="29500" r="140.315" /> 
<circle cx="89700" cy="29500" r="140.315" /> 
<circle cx="83560" cy="27475" r="140.315" /> 
<circle cx="84560" cy="27475" r="140.315" /> 
<circle cx="85560" cy="27475" r="140.315" /> 
</g> 
</svg>
